<svg width="17" height="18" viewBox="0 0 17 18" fill="none" xmlns="http://www.w3.org/2000/svg">
<path d="M14.5207 2.18481H2.479L3.5415 14.2265L8.49984 15.6431L13.4582 14.2265L14.5207 2.18481Z" fill="#0277BD"/>
<path d="M8.5 3.24731V14.5452L12.4667 13.4119L13.3521 3.24731H8.5Z" fill="#039BE5"/>
<path d="M11.7229 5.01819H8.5V6.43486H10.2354L10.1292 7.85152H8.5V9.26819H10.0583L9.95208 10.8619L8.5 11.3578V12.8453L11.2979 11.9244L11.5458 7.85152L11.7229 5.01819Z" fill="#E7F0EC"/>
<path d="M8.50003 5.01819V6.43486H5.34795L5.2417 5.01819H8.50003ZM6.87087 7.85152L6.9417 9.26819H8.50003V7.85152H6.87087ZM7.01253 9.97652H5.59587L5.70212 11.9244L8.50003 12.8453V11.3578L7.04795 10.8619L7.01253 9.97652Z" fill="#EEEEEE"/>
</svg>
