<svg width="17" height="18" viewBox="0 0 17 18" fill="none" xmlns="http://www.w3.org/2000/svg">
<path d="M14.5207 2.18481H2.479L3.5415 14.2265L8.49984 15.6431L13.4582 14.2265L14.5207 2.18481Z" fill="#E65100"/>
<path d="M8.5 3.24731V14.5452L12.4667 13.4119L13.3521 3.24731H8.5Z" fill="#FF6D00"/>
<path d="M8.5 9.26819V7.85152H11.5458L11.2979 11.9244L8.5 12.8453V11.3578L9.95208 10.8619L10.0583 9.26819H8.5ZM11.6521 6.43486L11.7583 5.01819H8.5V6.43486H11.6521Z" fill="#E7F0EC"/>
<path d="M8.49977 11.3578V12.8453L5.70186 11.9244L5.56019 9.97652H6.97686L7.04769 10.8619L8.49977 11.3578ZM6.76436 6.43486H8.49977V5.01819H5.27686L5.52477 9.26819H8.49977V7.85152H6.87061L6.76436 6.43486Z" fill="#EEEEEE"/>
</svg>
