<svg width="17" height="17" viewBox="0 0 17 17" fill="none" xmlns="http://www.w3.org/2000/svg">
<path d="M14.946 7.82706L9.17308 2.05415C8.996 1.87706 8.74808 1.77081 8.50016 1.77081C8.25225 1.77081 8.00433 1.87706 7.82725 2.05415L6.58766 3.29373L8.03975 4.74581C8.18141 4.67498 8.32308 4.63956 8.50016 4.63956C9.10225 4.63956 9.56266 5.09998 9.56266 5.70206C9.56266 5.87915 9.52725 6.02081 9.45641 6.16248L10.8731 7.57915C11.0147 7.50831 11.1564 7.4729 11.3335 7.4729C11.9356 7.4729 12.396 7.93331 12.396 8.5354C12.396 9.13748 11.9356 9.5979 11.3335 9.5979C10.7314 9.5979 10.271 9.13748 10.271 8.5354C10.271 8.35831 10.3064 8.21665 10.3772 8.07498L8.96058 6.65831C8.92516 6.65831 8.88975 6.69373 8.85433 6.69373V10.3771C9.27933 10.5187 9.56266 10.9083 9.56266 11.3687C9.56266 11.9708 9.10225 12.4312 8.50016 12.4312C7.89808 12.4312 7.43766 11.9708 7.43766 11.3687C7.43766 10.9083 7.721 10.5187 8.146 10.3771V6.65831C7.721 6.51665 7.43766 6.12706 7.43766 5.66665C7.43766 5.48956 7.47308 5.3479 7.54391 5.20623L6.09183 3.75415L2.05433 7.82706C1.87725 8.00415 1.771 8.25206 1.771 8.49998C1.771 8.7479 1.87725 8.99581 2.05433 9.1729L7.82725 14.9458C8.00433 15.1229 8.25225 15.2291 8.50016 15.2291C8.74808 15.2291 8.996 15.1229 9.17308 14.9458L14.946 9.1729C15.1231 8.99581 15.2293 8.7479 15.2293 8.49998C15.2293 8.25206 15.1231 8.00415 14.946 7.82706Z" fill="#F4511E"/>
</svg>
