<svg width="17" height="17" viewBox="0 0 17 17" fill="none" xmlns="http://www.w3.org/2000/svg">
<path d="M8.50016 2.83331C11.6298 2.83331 14.1668 5.37033 14.1668 8.49998C14.1668 11.016 12.5263 13.1478 10.2571 13.8876C10.2578 13.8854 10.2587 13.8824 10.2587 13.8824C10.2587 13.8824 9.87622 13.7032 9.88425 13.3832C9.89322 13.0312 9.88425 12.2095 9.88425 11.908C9.88425 11.3902 9.55652 11.0233 9.55652 11.0233C9.55652 11.0233 12.1264 11.0521 12.1264 8.31015C12.1264 7.25213 11.5734 6.70176 11.5734 6.70176C11.5734 6.70176 11.8638 5.5722 11.4728 5.09337C11.0346 5.04615 10.2497 5.51223 9.91447 5.73016C9.91447 5.73016 9.38322 5.51247 8.49993 5.51247C7.6164 5.51247 7.08538 5.73016 7.08538 5.73016C6.75034 5.51247 5.96527 5.04615 5.52705 5.09337C5.13605 5.57244 5.42647 6.70176 5.42647 6.70176C5.42647 6.70176 4.8735 7.25237 4.8735 8.31015C4.8735 11.0521 7.44333 11.0233 7.44333 11.0233C7.44333 11.0233 7.18432 11.3158 7.12788 11.746C6.94844 11.807 6.6847 11.882 6.4715 11.882C5.9138 11.882 5.48951 11.3399 5.33415 11.0892C5.18091 10.8417 4.86665 10.6342 4.57364 10.6342C4.38073 10.6342 4.28652 10.7308 4.28652 10.841C4.28652 10.9513 4.55711 11.0283 4.73561 11.2327C5.11197 11.6639 5.10512 12.6336 6.44623 12.6336C6.59191 12.6336 6.88918 12.5977 7.11277 12.5677C7.11136 12.873 7.11112 13.195 7.11584 13.3832C7.12387 13.7032 6.74137 13.8824 6.74137 13.8824C6.74137 13.8824 6.74232 13.8854 6.74302 13.8876C4.474 13.1478 2.8335 11.016 2.8335 8.49998C2.8335 5.37033 5.37051 2.83331 8.50016 2.83331Z" fill="black"/>
</svg>
