<svg width="17" height="17" viewBox="0 0 17 17" fill="none" xmlns="http://www.w3.org/2000/svg">
<g clip-path="url(#clip0_459_167)">
<path d="M12.0516 0.684007C11.9195 0.68864 11.7877 0.723065 11.6697 0.784945C11.9774 0.937265 12.1945 1.2381 12.2302 1.5951C12.2363 1.63794 12.2402 1.677 12.2402 1.69604V15.296C12.2402 15.6993 12.0044 16.0449 11.6651 16.2105C11.7889 16.2781 11.927 16.316 12.0702 16.316C12.197 16.316 12.3167 16.2867 12.4248 16.237L12.4254 16.2383C12.9722 15.9555 15.7056 14.54 15.8062 14.4826C16.1234 14.3007 16.3202 13.9609 16.3202 13.596V3.39604C16.3202 3.05672 16.1521 2.74107 15.8706 2.55135C15.7618 2.47757 12.4381 0.760374 12.4381 0.760374L12.4374 0.761703C12.3164 0.704753 12.1837 0.679375 12.0516 0.684007ZM11.2202 1.35604C11.1332 1.35604 11.0461 1.38918 10.9798 1.45565C10.9798 1.45565 9.03345 3.64443 6.87854 6.06557L9.42654 8.15006L11.5602 6.35311V1.69604C11.5602 1.609 11.5269 1.52195 11.4606 1.45565C11.3941 1.38918 11.3072 1.35604 11.2202 1.35604ZM2.72018 3.73604C2.66714 3.73604 2.56849 3.73623 2.12717 3.94057C1.88407 4.05311 1.03744 4.49772 1.03744 4.49772C0.925241 4.55858 0.834732 4.65385 0.771152 4.76401C0.796992 4.75993 0.822652 4.75604 0.849512 4.75604H0.850176C1.0773 4.75604 1.21658 4.91454 1.26588 4.96588C1.26588 4.96588 10.8564 15.413 10.9798 15.5364C11.0461 15.6027 11.1325 15.636 11.2195 15.636C11.3066 15.636 11.3936 15.6027 11.4599 15.5364C11.5262 15.4701 11.5602 15.3831 11.5602 15.296V10.7638C11.5602 10.7638 3.24165 3.96504 3.17705 3.91268C3.05193 3.79912 2.88916 3.73604 2.72018 3.73604ZM0.74791 5.43604C0.71051 5.43604 0.680176 5.4667 0.680176 5.50444L0.680176 11.8303C0.680176 11.8667 0.709862 11.8967 0.746582 11.8967C0.765622 11.8967 0.782495 11.888 0.794395 11.8748L2.72018 9.73717V7.48268L0.796387 5.45596C0.784147 5.44372 0.76661 5.43604 0.74791 5.43604ZM4.1665 9.11295C4.1665 9.11295 1.24408 12.394 1.21076 12.4273C1.11862 12.5194 0.991276 12.576 0.850176 12.576C0.823656 12.576 0.79798 12.5728 0.77248 12.5687C0.84116 12.6881 0.94188 12.7865 1.06666 12.847L1.06533 12.849C1.36113 12.9992 2.33732 13.4952 2.46584 13.5476C2.54676 13.5799 2.63212 13.596 2.72018 13.596C2.83816 13.596 2.95479 13.5656 3.05951 13.5057C3.06733 13.5013 5.95947 11.068 5.95947 11.068L4.1665 9.11295Z" fill="black"/>
</g>
<defs>
<clipPath id="clip0_459_167">
<rect width="17" height="17" fill="white"/>
</clipPath>
</defs>
</svg>
