<svg width="17" height="18" viewBox="0 0 17 18" fill="none" xmlns="http://www.w3.org/2000/svg">
<path d="M2.125 15.289V2.539H14.875V15.289H2.125Z" fill="#F7DF1E"/>
<path d="M10.4616 12.0828C10.7067 12.4808 10.973 12.8623 11.5372 12.8623C12.0111 12.8623 12.2597 12.6268 12.2597 12.3009C12.2597 11.911 12.0026 11.7725 11.4812 11.5455L11.1954 11.4236C10.3706 11.0737 9.82198 10.6353 9.82198 9.70913C9.82198 8.85558 10.4754 8.20604 11.4965 8.20604C12.2236 8.20604 12.746 8.45785 13.1228 9.11731L12.2324 9.68646C12.0366 9.33654 11.8248 9.19877 11.4965 9.19877C11.1614 9.19877 10.9493 9.41021 10.9493 9.68646C10.9493 10.0279 11.1618 10.166 11.6523 10.3774L11.9381 10.4993C12.9103 10.9133 13.4586 11.3362 13.4586 12.2868C13.4586 13.311 12.6496 13.8724 11.5638 13.8724C10.5016 13.8724 9.89848 13.3393 9.56273 12.6795L10.4616 12.0828ZM6.35823 12.1118C6.53743 12.4327 6.80979 12.6795 7.2015 12.6795C7.57621 12.6795 7.79189 12.5315 7.79189 11.956V8.20569H8.97233V12.1373C8.97233 13.3298 8.28064 13.8724 7.27056 13.8724C6.35787 13.8724 5.69912 13.254 5.43066 12.6795L6.35823 12.1118Z" fill="#000001"/>
</svg>
