<svg width="16" height="15" viewBox="0 0 16 15" fill="none" xmlns="http://www.w3.org/2000/svg">
<path d="M14.9454 6.11275H14.3748V6.08335H7.99984V8.91669H12.003C11.419 10.566 9.84965 11.75 7.99984 11.75C5.65278 11.75 3.74984 9.84708 3.74984 7.50002C3.74984 5.15296 5.65278 3.25002 7.99984 3.25002C9.08323 3.25002 10.0689 3.65873 10.8194 4.32633L12.8229 2.32281C11.5578 1.14379 9.86559 0.416687 7.99984 0.416687C4.08807 0.416687 0.916504 3.58825 0.916504 7.50002C0.916504 11.4118 4.08807 14.5834 7.99984 14.5834C11.9116 14.5834 15.0832 11.4118 15.0832 7.50002C15.0832 7.02508 15.0343 6.56148 14.9454 6.11275Z" fill="#FFC107"/>
<path d="M1.73321 4.20308L4.06044 5.90981C4.69015 4.35077 6.21519 3.25002 7.99984 3.25002C9.08323 3.25002 10.0689 3.65873 10.8194 4.32633L12.8229 2.32281C11.5578 1.14379 9.86559 0.416687 7.99984 0.416687C5.27913 0.416687 2.91967 1.95271 1.73321 4.20308Z" fill="#FF3D00"/>
<path d="M7.99984 14.5834C9.82946 14.5834 11.4919 13.8832 12.7489 12.7445L10.5566 10.8894C9.8454 11.4281 8.9614 11.75 7.99984 11.75C6.15746 11.75 4.59311 10.5752 4.00377 8.93581L1.6939 10.7155C2.86619 13.0094 5.2469 14.5834 7.99984 14.5834Z" fill="#4CAF50"/>
<path d="M14.9454 6.11275H14.3748V6.08335H7.99984V8.91669H12.003C11.7225 9.70896 11.2128 10.3921 10.5555 10.8897L10.5566 10.8894L12.7489 12.7445C12.5937 12.8855 15.0832 11.0417 15.0832 7.50002C15.0832 7.02508 15.0343 6.56148 14.9454 6.11275Z" fill="#1976D2"/>
</svg>
