<svg width="18" height="17" viewBox="0 0 18 17" fill="none" xmlns="http://www.w3.org/2000/svg">
<path d="M0.875 6.15238C0.875 3.99885 0.875 2.92208 1.29411 2.09954C1.66276 1.37601 2.25101 0.787762 2.97454 0.419106C3.79708 0 4.87385 0 7.02738 0L11.7226 0C13.8762 0 14.9529 0 15.7755 0.419106C16.499 0.787762 17.0872 1.37601 17.4559 2.09954C17.875 2.92208 17.875 3.99885 17.875 6.15238V10.8476C17.875 13.0012 17.875 14.0779 17.4559 14.9005C17.0872 15.624 16.499 16.2122 15.7755 16.5809C14.9529 17 13.8762 17 11.7226 17H7.02738C4.87385 17 3.79708 17 2.97454 16.5809C2.25101 16.2122 1.66276 15.624 1.29411 14.9005C0.875 14.0779 0.875 13.0012 0.875 10.8476L0.875 6.15238Z" fill="#E7F0EC"/>
<path d="M0.875 6.15238C0.875 3.99885 0.875 2.92208 1.29411 2.09954C1.66276 1.37601 2.25101 0.787762 2.97454 0.419106C3.79708 0 4.87385 0 7.02738 0L11.7226 0C13.8762 0 14.9529 0 15.7755 0.419106C16.499 0.787762 17.0872 1.37601 17.4559 2.09954C17.875 2.92208 17.875 3.99885 17.875 6.15238V10.8476C17.875 13.0012 17.875 14.0779 17.4559 14.9005C17.0872 15.624 16.499 16.2122 15.7755 16.5809C14.9529 17 13.8762 17 11.7226 17H7.02738C4.87385 17 3.79708 17 2.97454 16.5809C2.25101 16.2122 1.66276 15.624 1.29411 14.9005C0.875 14.0779 0.875 13.0012 0.875 10.8476L0.875 6.15238Z" fill="url(#paint0_radial_459_142)"/>
<path d="M0.875 6.15238C0.875 3.99885 0.875 2.92208 1.29411 2.09954C1.66276 1.37601 2.25101 0.787762 2.97454 0.419106C3.79708 0 4.87385 0 7.02738 0L11.7226 0C13.8762 0 14.9529 0 15.7755 0.419106C16.499 0.787762 17.0872 1.37601 17.4559 2.09954C17.875 2.92208 17.875 3.99885 17.875 6.15238V10.8476C17.875 13.0012 17.875 14.0779 17.4559 14.9005C17.0872 15.624 16.499 16.2122 15.7755 16.5809C14.9529 17 13.8762 17 11.7226 17H7.02738C4.87385 17 3.79708 17 2.97454 16.5809C2.25101 16.2122 1.66276 15.624 1.29411 14.9005C0.875 14.0779 0.875 13.0012 0.875 10.8476L0.875 6.15238Z" fill="url(#paint1_radial_459_142)"/>
<path d="M0.875 6.15238C0.875 3.99885 0.875 2.92208 1.29411 2.09954C1.66276 1.37601 2.25101 0.787762 2.97454 0.419106C3.79708 0 4.87385 0 7.02738 0L11.7226 0C13.8762 0 14.9529 0 15.7755 0.419106C16.499 0.787762 17.0872 1.37601 17.4559 2.09954C17.875 2.92208 17.875 3.99885 17.875 6.15238V10.8476C17.875 13.0012 17.875 14.0779 17.4559 14.9005C17.0872 15.624 16.499 16.2122 15.7755 16.5809C14.9529 17 13.8762 17 11.7226 17H7.02738C4.87385 17 3.79708 17 2.97454 16.5809C2.25101 16.2122 1.66276 15.624 1.29411 14.9005C0.875 14.0779 0.875 13.0012 0.875 10.8476L0.875 6.15238Z" fill="url(#paint2_radial_459_142)"/>
<path d="M0.875 6.15238C0.875 3.99885 0.875 2.92208 1.29411 2.09954C1.66276 1.37601 2.25101 0.787762 2.97454 0.419106C3.79708 0 4.87385 0 7.02738 0L11.7226 0C13.8762 0 14.9529 0 15.7755 0.419106C16.499 0.787762 17.0872 1.37601 17.4559 2.09954C17.875 2.92208 17.875 3.99885 17.875 6.15238V10.8476C17.875 13.0012 17.875 14.0779 17.4559 14.9005C17.0872 15.624 16.499 16.2122 15.7755 16.5809C14.9529 17 13.8762 17 11.7226 17H7.02738C4.87385 17 3.79708 17 2.97454 16.5809C2.25101 16.2122 1.66276 15.624 1.29411 14.9005C0.875 14.0779 0.875 13.0012 0.875 10.8476L0.875 6.15238Z" fill="url(#paint3_radial_459_142)"/>
<path d="M0.875 6.15238C0.875 3.99885 0.875 2.92208 1.29411 2.09954C1.66276 1.37601 2.25101 0.787762 2.97454 0.419106C3.79708 0 4.87385 0 7.02738 0L11.7226 0C13.8762 0 14.9529 0 15.7755 0.419106C16.499 0.787762 17.0872 1.37601 17.4559 2.09954C17.875 2.92208 17.875 3.99885 17.875 6.15238V10.8476C17.875 13.0012 17.875 14.0779 17.4559 14.9005C17.0872 15.624 16.499 16.2122 15.7755 16.5809C14.9529 17 13.8762 17 11.7226 17H7.02738C4.87385 17 3.79708 17 2.97454 16.5809C2.25101 16.2122 1.66276 15.624 1.29411 14.9005C0.875 14.0779 0.875 13.0012 0.875 10.8476L0.875 6.15238Z" fill="url(#paint4_radial_459_142)"/>
<path d="M0.875 6.15238C0.875 3.99885 0.875 2.92208 1.29411 2.09954C1.66276 1.37601 2.25101 0.787762 2.97454 0.419106C3.79708 0 4.87385 0 7.02738 0L11.7226 0C13.8762 0 14.9529 0 15.7755 0.419106C16.499 0.787762 17.0872 1.37601 17.4559 2.09954C17.875 2.92208 17.875 3.99885 17.875 6.15238V10.8476C17.875 13.0012 17.875 14.0779 17.4559 14.9005C17.0872 15.624 16.499 16.2122 15.7755 16.5809C14.9529 17 13.8762 17 11.7226 17H7.02738C4.87385 17 3.79708 17 2.97454 16.5809C2.25101 16.2122 1.66276 15.624 1.29411 14.9005C0.875 14.0779 0.875 13.0012 0.875 10.8476L0.875 6.15238Z" fill="url(#paint5_radial_459_142)"/>
<path d="M0.875 6.15238C0.875 3.99885 0.875 2.92208 1.29411 2.09954C1.66276 1.37601 2.25101 0.787762 2.97454 0.419106C3.79708 0 4.87385 0 7.02738 0L11.7226 0C13.8762 0 14.9529 0 15.7755 0.419106C16.499 0.787762 17.0872 1.37601 17.4559 2.09954C17.875 2.92208 17.875 3.99885 17.875 6.15238V10.8476C17.875 13.0012 17.875 14.0779 17.4559 14.9005C17.0872 15.624 16.499 16.2122 15.7755 16.5809C14.9529 17 13.8762 17 11.7226 17H7.02738C4.87385 17 3.79708 17 2.97454 16.5809C2.25101 16.2122 1.66276 15.624 1.29411 14.9005C0.875 14.0779 0.875 13.0012 0.875 10.8476L0.875 6.15238Z" fill="url(#paint6_radial_459_142)"/>
<path d="M14.5175 5.12181C13.6179 4.12651 12.35 3.56711 11.0325 3.57437C9.74334 3.57437 8.43293 4.14104 7.59001 5.05642C7.43418 5.04189 7.27834 5.02736 7.12959 5.02736C4.60084 5.02736 3.03543 7.20685 3.03543 9.22651C3.04251 10.3163 3.45334 11.3624 4.18293 12.1615C4.94793 12.997 6.01043 13.4692 7.12959 13.4692H11.0325C13.6817 13.4692 15.835 11.2389 15.835 8.50728C15.8208 7.25044 15.3533 6.04446 14.5175 5.12181ZM7.05167 12.7573C5.17459 12.7573 3.65876 11.1953 3.65876 9.2701C3.65876 7.35942 5.16751 5.80471 7.03751 5.79018C7.86626 5.79018 8.73751 6.06626 9.29001 6.66924L10.7138 8.16582C10.9475 8.41283 10.9404 8.80514 10.6996 9.04488C10.4588 9.28463 10.0763 9.27736 9.84251 9.03035L8.45417 7.56283C7.54751 6.76369 6.18042 6.8654 5.40126 7.79531C5.06126 8.19488 4.87709 8.7107 4.87709 9.24104C4.87709 10.4615 5.89001 11.4932 7.08709 11.4932H7.36334C7.76001 12.0598 8.87209 12.7573 8.87209 12.7573H7.05167ZM14.0075 11.5077C13.2496 12.3214 12.2013 12.7791 11.1033 12.7863C10.0621 12.7863 8.99959 12.3068 8.18501 11.4786L6.32917 9.5607C6.09543 9.31369 6.10251 8.92138 6.33626 8.68164C6.44959 8.5654 6.59834 8.50728 6.76126 8.50728C6.92418 8.50728 7.08001 8.57266 7.19334 8.69617L9.04209 10.5923C9.63001 11.1953 10.3808 11.5368 11.1033 11.5368C11.8754 11.5368 12.6121 11.2098 13.1433 10.6286C13.6888 10.0547 13.9933 9.28463 13.9933 8.48548C13.9933 6.8436 12.69 5.51412 11.0892 5.50685C10.48 5.50685 9.97709 5.63035 9.48126 5.98634C9.20057 5.69845 8.59584 5.41241 8.31959 5.35429C9.08459 4.62052 10.0408 4.26454 11.0892 4.26454C13.3629 4.26454 15.1975 6.15343 15.2046 8.48548C15.2046 9.61155 14.7796 10.7013 14.0075 11.5077Z" fill="#E7F0EC"/>
<defs>
<radialGradient id="paint0_radial_459_142" cx="0" cy="0" r="1" gradientUnits="userSpaceOnUse" gradientTransform="translate(15.0062 14.5299) rotate(46.87) scale(10.1538 10.4002)">
<stop stop-color="#68E048"/>
<stop offset="1" stop-color="#5CE049" stop-opacity="0"/>
</radialGradient>
<radialGradient id="paint1_radial_459_142" cx="0" cy="0" r="1" gradientUnits="userSpaceOnUse" gradientTransform="translate(3.56667 14.4573) rotate(137.364) scale(10.3504 10.6414)">
<stop stop-color="#308CFE"/>
<stop offset="1" stop-color="#2F8BFF" stop-opacity="0"/>
</radialGradient>
<radialGradient id="paint2_radial_459_142" cx="0" cy="0" r="1" gradientUnits="userSpaceOnUse" gradientTransform="translate(14.6875 9.51709) rotate(7.9001) scale(6.07852 6.38827)">
<stop stop-color="#FDD511"/>
<stop offset="1" stop-color="#FDD20D" stop-opacity="0"/>
</radialGradient>
<radialGradient id="paint3_radial_459_142" cx="0" cy="0" r="1" gradientUnits="userSpaceOnUse" gradientTransform="translate(3.77917 6.13889) rotate(-127.134) scale(8.97613 9.14604)">
<stop stop-color="#F928C2"/>
<stop offset="1" stop-color="#F922BC" stop-opacity="0"/>
</radialGradient>
<radialGradient id="paint4_radial_459_142" cx="0" cy="0" r="1" gradientUnits="userSpaceOnUse" gradientTransform="translate(10.5083 2.83333) rotate(-63.404) scale(9.01838 9.11226)">
<stop stop-color="#F90700"/>
<stop offset="1" stop-color="#F90700" stop-opacity="0"/>
</radialGradient>
<radialGradient id="paint5_radial_459_142" cx="0" cy="0" r="1" gradientUnits="userSpaceOnUse" gradientTransform="translate(16.9542 2.47009) rotate(-65.6935) scale(5.42068 5.46838)">
<stop stop-color="#FB4200"/>
<stop offset="1" stop-color="#FB4300" stop-opacity="0"/>
</radialGradient>
<radialGradient id="paint6_radial_459_142" cx="0" cy="0" r="1" gradientUnits="userSpaceOnUse" gradientTransform="translate(2.64583 2.07051) rotate(-133.672) scale(4.82118 4.94058)">
<stop stop-color="#FE0D88"/>
<stop offset="1" stop-color="#FE0D88" stop-opacity="0"/>
</radialGradient>
</defs>
</svg>
