<svg width="11" height="15" viewBox="0 0 11 15" fill="none" xmlns="http://www.w3.org/2000/svg">
<path fill-rule="evenodd" clip-rule="evenodd" d="M5.9165 7.5C5.9165 6.11929 7.03579 5 8.4165 5C9.79722 5 10.9165 6.11929 10.9165 7.5C10.9165 8.88071 9.79722 10 8.4165 10C7.03579 10 5.9165 8.88071 5.9165 7.5Z" fill="#1ABCFE"/>
<path fill-rule="evenodd" clip-rule="evenodd" d="M0.916504 12.5C0.916504 11.1193 2.03579 10 3.4165 10H5.9165V12.5C5.9165 13.8807 4.79722 15 3.4165 15C2.03579 15 0.916504 13.8807 0.916504 12.5Z" fill="#0ACF83"/>
<path fill-rule="evenodd" clip-rule="evenodd" d="M5.9165 0V5H8.4165C9.79722 5 10.9165 3.88071 10.9165 2.5C10.9165 1.11929 9.79722 0 8.4165 0H5.9165Z" fill="#FF7262"/>
<path fill-rule="evenodd" clip-rule="evenodd" d="M0.916504 2.5C0.916504 3.88071 2.03579 5 3.4165 5H5.9165V0H3.4165C2.03579 0 0.916504 1.11929 0.916504 2.5Z" fill="#F24E1E"/>
<path fill-rule="evenodd" clip-rule="evenodd" d="M0.916504 7.5C0.916504 8.88071 2.03579 10 3.4165 10H5.9165V5H3.4165C2.03579 5 0.916504 6.11929 0.916504 7.5Z" fill="#A259FF"/>
</svg>
