<svg width="15" height="16" viewBox="0 0 15 16" fill="none" xmlns="http://www.w3.org/2000/svg">
<path d="M7.50264 15.586C7.29935 15.586 7.09783 15.5328 6.91968 15.4301L5.06385 14.3312C4.78654 14.176 4.92183 14.1211 5.0132 14.0896C5.38295 13.9603 5.45768 13.9309 5.85223 13.7068C5.89366 13.683 5.94785 13.6915 5.99035 13.7167L7.41623 14.5628C7.46758 14.5908 7.54089 14.5908 7.58835 14.5628L13.1477 11.3537C13.1991 11.3243 13.2327 11.2648 13.2327 11.2035V4.78849C13.2327 4.72439 13.1994 4.66737 13.1466 4.63549L7.58977 1.42887C7.53841 1.39841 7.47006 1.39841 7.4187 1.42887L1.86254 4.63514C1.8087 4.6656 1.77435 4.72545 1.77435 4.78672V11.2021C1.77435 11.2634 1.80764 11.3218 1.86077 11.3508L3.38333 12.2302C4.20995 12.6436 4.715 12.1566 4.715 11.6668V5.33532C4.715 5.24501 4.78583 5.17524 4.8765 5.17524H5.58058C5.66841 5.17524 5.74066 5.24466 5.74066 5.33532V11.6699C5.74066 12.7721 5.13964 13.4054 4.0945 13.4054C3.77291 13.4054 3.51968 13.4054 2.81277 13.0576L1.35431 12.2171C0.993767 12.0082 0.770996 11.6182 0.770996 11.2024V4.78707C0.770996 4.36951 0.993767 3.97993 1.35395 3.7738L6.91933 0.563283C7.27137 0.364241 7.73887 0.364241 8.08843 0.563283L13.6467 3.77522C14.0051 3.98241 14.2293 4.37093 14.2293 4.78849V11.2039C14.2293 11.62 14.0051 12.0082 13.6464 12.2171L8.08808 15.4273C7.90993 15.5304 7.70806 15.5831 7.50229 15.5831" fill="#21A366"/>
<path d="M9.22 11.1653C6.78758 11.1653 6.27758 10.0486 6.27758 9.11216C6.27758 9.02326 6.34947 8.95207 6.43872 8.95207H7.15698C7.23631 8.95207 7.30325 9.0098 7.31564 9.08807C7.42402 9.81978 7.74702 10.1888 9.21787 10.1888C10.3895 10.1888 10.8878 9.92426 10.8878 9.3027C10.8878 8.94499 10.7457 8.67937 8.92568 8.50122C7.40312 8.35105 6.46245 8.01566 6.46245 6.79803C6.46245 5.67639 7.40879 5.00843 8.99368 5.00843C10.7737 5.00843 11.656 5.62645 11.7672 6.95387C11.7714 6.99991 11.7548 7.04418 11.724 7.07782C11.6935 7.1097 11.6503 7.12918 11.6057 7.12918H10.8835C10.8084 7.12918 10.7429 7.07641 10.7277 7.0038C10.5538 6.2342 10.1334 5.98805 8.99085 5.98805C7.71195 5.98805 7.5632 6.43324 7.5632 6.76722C7.5632 7.17203 7.73852 7.29032 9.46402 7.51876C11.1729 7.74543 11.9843 8.06559 11.9843 9.26657C11.9843 10.4771 10.9738 11.1716 9.2122 11.1716" fill="#21A366"/>
</svg>
