<svg width="18" height="12" viewBox="0 0 18 12" fill="none" xmlns="http://www.w3.org/2000/svg">
<path d="M9.271 0.901245C7.00433 0.901245 5.58766 2.03422 5.021 4.30018C5.871 3.1672 6.86266 2.74256 7.996 3.02554C8.6427 3.18704 9.10489 3.65631 9.61666 4.17552C10.4497 5.02091 11.4141 5.99983 13.521 5.99983C15.7877 5.99983 17.2043 4.86685 17.771 2.60054C16.921 3.73352 15.9293 4.15852 14.796 3.87554C14.1496 3.71404 13.6875 3.24477 13.1757 2.72556C12.3423 1.87981 11.3776 0.901245 9.271 0.901245ZM5.021 5.99983C2.75433 5.99983 1.33766 7.13281 0.770996 9.39912C1.621 8.26614 2.61266 7.84114 3.746 8.12447C4.39235 8.28633 4.85454 8.75524 5.36631 9.2741C6.19966 10.1198 7.16441 11.0988 9.271 11.0988C11.5377 11.0988 12.9543 9.96579 13.521 7.69947C12.671 8.83245 11.6793 9.25745 10.546 8.97412C9.89929 8.81262 9.4371 8.34335 8.92533 7.82449C8.09233 6.97874 7.12793 5.99983 5.021 5.99983Z" fill="#00ACC1"/>
</svg>
